<?xml version="1.0" encoding="UTF-8" standalone="no"?>
<!-- Created with Inkscape (http://www.inkscape.org/) -->

<svg
   xmlns:dc="http://purl.org/dc/elements/1.1/"
   xmlns:cc="http://creativecommons.org/ns#"
   xmlns:rdf="http://www.w3.org/1999/02/22-rdf-syntax-ns#"
   xmlns:svg="http://www.w3.org/2000/svg"
   xmlns="http://www.w3.org/2000/svg"
   xmlns:sodipodi="http://sodipodi.sourceforge.net/DTD/sodipodi-0.dtd"
   xmlns:inkscape="http://www.inkscape.org/namespaces/inkscape"
   version="1.1"
   id="svg64"
   width="1333.3333"
   height="1333.3333"
   viewBox="0 0 1333.3333 1333.3333"
   sodipodi:docname="logo.svg"
   inkscape:version="0.92.5 (2060ec1f9f, 2020-04-08)">
  <metadata
     id="metadata70">
    <rdf:RDF>
      <cc:Work
         rdf:about="">
        <dc:format>image/svg+xml</dc:format>
        <dc:type
           rdf:resource="http://purl.org/dc/dcmitype/StillImage" />
        <dc:title></dc:title>
      </cc:Work>
    </rdf:RDF>
  </metadata>
  <defs
     id="defs68" />
  <sodipodi:namedview
     pagecolor="#ffffff"
     bordercolor="#666666"
     borderopacity="1"
     objecttolerance="10"
     gridtolerance="10"
     guidetolerance="10"
     inkscape:pageopacity="0"
     inkscape:pageshadow="2"
     inkscape:window-width="1920"
     inkscape:window-height="1010"
     id="namedview66"
     showgrid="false"
     inkscape:zoom="0.30262502"
     inkscape:cx="701.33239"
     inkscape:cy="726.24916"
     inkscape:window-x="0"
     inkscape:window-y="0"
     inkscape:window-maximized="1"
     inkscape:current-layer="svg64" />
  <path
     style="fill:#000000;stroke-width:1.48835039"
     d="m 597.2074,1300.6151 c -2.03577,-0.3802 -5.38456,-1.8286 -7.44175,-3.2186 -2.05722,-1.3902 -5.58221,-3.3177 -7.83334,-4.2836 -2.25114,-0.9657 -4.09297,-2.388 -4.09297,-3.1607 0,-0.7727 -2.36116,-2.1841 -5.24703,-3.1365 -2.88589,-0.9524 -7.07187,-3.2514 -9.30219,-5.1091 -2.23034,-1.8575 -6.464,-4.1621 -9.40812,-5.1214 -2.94413,-0.9592 -9.13939,-5.2678 -13.76724,-9.5748 l -8.41429,-7.8308 v -34.9602 c 0,-43.9998 0.0435,-44.0987 17.4175,-39.592 4.20625,1.0912 9.48092,3.2679 11.72147,4.8372 5.83865,4.0896 16.56232,10.3013 25.18584,14.5892 4.09295,2.0351 10.79053,6.2805 14.8835,9.4342 10.78432,8.3093 11.47103,11.3382 10.89131,48.0382 -0.47929,30.3422 -1.34966,35.7563 -6.27699,39.0464 -1.72319,1.1507 -2.3642,1.1539 -8.3157,0.043 z m 140.37473,-1.1172 c -2.59598,-1.105 -5.44245,-3.359 -6.32549,-5.009 -2.27665,-4.254 -1.98957,-64.8653 0.3389,-71.5522 1.939,-5.5683 16.3965,-17.0073 23.65242,-18.7142 2.20869,-0.5195 6.48676,-2.9083 9.50685,-5.3084 3.02008,-2.4 6.35222,-4.3637 7.40474,-4.3637 1.05251,0 3.91328,-1.6825 6.35726,-3.739 4.88056,-4.1067 15.04607,-8.1678 20.44531,-8.1678 7.39046,0 8.09204,3.6609 7.97859,41.6329 -0.0575,19.2594 -0.55984,36.1441 -1.11626,37.5215 -1.22066,3.0217 -10.8783,10.1714 -19.80334,14.6606 -3.58064,1.801 -7.51492,4.1198 -8.7428,5.1527 -1.22789,1.0329 -8.19589,5.0254 -15.48449,8.8724 -7.28857,3.8468 -14.65591,7.9009 -16.37185,9.0087 -2.62045,1.6921 -3.87548,1.6929 -7.83984,0.012 z m 129.10525,-79.1021 c -2.92903,-3.7236 -3.08473,-5.7518 -3.08473,-40.1855 0,-40.2599 -0.97481,-36.2447 10.99519,-45.2877 3.18229,-2.4043 6.60819,-4.3712 7.61313,-4.3712 1.00493,0 3.70198,-1.5069 5.99342,-3.3488 2.29146,-1.8419 8.08219,-5.358 12.86831,-7.8138 4.78614,-2.4558 13.06441,-6.7418 18.3962,-9.5245 8.34112,-4.3532 10.21256,-4.8232 13.40841,-3.3671 2.04285,0.9308 4.37059,3.4186 5.17275,5.5284 2.11959,5.5749 1.71366,65.6889 -0.48598,71.9687 -1.68136,4.8001 -11.00495,12.0925 -23.35751,18.269 -2.04649,1.0234 -5.73016,3.3073 -8.18594,5.0756 -2.45578,1.7683 -6.92307,4.0019 -9.9273,4.9637 -3.00425,0.9617 -6.35302,2.8251 -7.44176,4.1408 -2.31022,2.792 -12.76072,7.7939 -16.38288,7.8414 -1.37313,0.018 -3.88472,-1.732 -5.58131,-3.889 z m -412.89312,-2.0365 c -3.87647,-2.4584 -9.42555,-5.4632 -12.33123,-6.6773 -2.90569,-1.214 -7.28386,-3.8909 -9.72927,-5.9486 -2.44542,-2.0576 -5.30738,-3.7412 -6.35989,-3.7412 -1.05251,0 -4.32872,-1.9193 -7.28044,-4.265 -2.95172,-2.3457 -7.31037,-5.0699 -9.68586,-6.0539 -7.09381,-2.9384 -7.68194,-6.2616 -7.68194,-43.4057 0,-35.4406 0.88988,-41.3278 6.57678,-43.51 1.22201,-0.469 7.44204,1.8875 13.82229,5.2365 6.38026,3.3491 15.22116,7.9958 19.64646,10.326 4.42529,2.3302 9.11359,5.1839 10.41845,6.3416 1.30486,1.1577 4.71661,3.1071 7.58168,4.3321 2.86508,1.2249 8.39201,5.1428 12.28207,8.7062 l 7.07284,6.479 0.14408,34.7236 c 0.14169,34.1623 0.0893,34.7819 -3.23932,38.3251 -4.79086,5.0996 -12.31089,4.7922 -21.23666,-0.8684 z m -128.23091,-73.4988 c -2.4561,-1.0705 -5.38458,-3.0535 -6.50773,-4.4069 -1.12316,-1.3532 -2.86424,-2.4605 -3.86909,-2.4605 -1.00482,0 -4.46412,-1.9103 -7.68733,-4.2451 -3.22319,-2.3349 -8.34686,-5.0659 -11.38594,-6.069 -3.03906,-1.0029 -5.52557,-2.4165 -5.52557,-3.1415 0,-0.7247 -3.8511,-3.1844 -8.55802,-5.4658 -11.66606,-5.6545 -12.09122,-7.2523 -12.19489,-45.8317 -0.0826,-30.72 0.9759,-40.2726 4.72594,-42.6529 3.46166,-2.1971 10.03757,-1.2796 13.15228,1.8351 1.69329,1.6934 5.84603,4.0551 9.2283,5.2484 3.38227,1.1934 7.42208,3.3242 8.97734,4.7352 1.55527,1.4109 5.38844,3.9049 8.51813,5.5421 15.41657,8.0646 20.47585,11.3327 25.26648,16.3212 l 5.20923,5.4245 0.30152,27.8243 c 0.35266,32.5462 -0.52018,44.2021 -3.5359,47.2178 -2.68016,2.6802 -10.11915,2.7378 -16.11475,0.1247 z m 672.45605,0.982 c -0.9721,-0.6669 -2.479,-3.0843 -3.3488,-5.372 -1.9702,-5.1821 -2.1197,-59.4103 -0.1823,-66.1654 2.0861,-7.2739 8.3472,-13.8518 18.5282,-19.4658 12.3653,-6.8186 21.3203,-11.7332 28.5695,-15.6793 3.3434,-1.8202 8.2588,-4.8615 10.9232,-6.7587 4.3596,-3.1043 5.4207,-3.2768 10.6027,-1.7243 3.167,0.9489 6.2513,2.5233 6.8542,3.4987 0.6029,0.9754 0.9312,16.7981 0.7298,35.1617 -0.4891,44.584 -0.559,44.7338 -27.0028,57.8251 -2.8652,1.4185 -7.1027,4.1009 -9.4169,5.9611 -2.3143,1.8602 -5.9979,3.803 -8.186,4.3175 -2.188,0.5145 -5.7888,2.6188 -8.0016,4.6764 -4.1935,3.8992 -16.4888,6.1813 -20.0692,3.725 z m -798.34974,-74.7592 c -2.11722,-0.6417 -5.68045,-2.3664 -7.91828,-3.8327 -4.28047,-2.8046 -7.80635,-4.8263 -19.93469,-11.4305 -4.07518,-2.219 -8.37152,-4.9967 -9.54745,-6.1727 -1.17593,-1.1758 -5.44042,-3.5586 -9.47666,-5.295 -5.34222,-2.2981 -8.44941,-4.9128 -11.42182,-9.6111 l -4.08318,-6.4541 v -34.34014 -34.34 l 3.92159,-3.08475 c 5.16589,-4.06342 12.65133,-4.01443 16.31254,0.10714 1.55942,1.75546 6.28996,4.73365 10.5123,6.6183 4.22235,1.88475 8.11925,4.14239 8.65979,5.01697 0.54054,0.87457 3.43945,2.61667 6.44202,3.87119 3.00258,1.25453 6.80789,3.52439 8.45624,5.04395 1.64836,1.5196 5.37244,3.7408 8.27574,4.9357 7.23098,2.9765 12.95062,10.2231 14.09568,17.8588 0.52263,3.48534 0.73064,19.95154 0.46222,36.59154 -0.47951,29.7244 -0.54964,30.3045 -4.00174,33.0974 -3.78732,3.0641 -4.86174,3.206 -10.7543,1.4202 z m 928.22154,-2.4048 c -1.9912,-1.9912 -2.3388,-7.4476 -2.3388,-36.7064 v -34.36754 l 4.5573,-7.102 c 3.1607,-4.9256 5.8737,-7.3911 8.8529,-8.0455 2.3625,-0.5189 6.7332,-2.8806 9.7126,-5.2483 2.9794,-2.36766 6.8652,-4.74322 8.6353,-5.27901 1.77,-0.53569 4.5667,-2.20463 6.2151,-3.70867 1.6484,-1.50404 5.667,-3.83539 8.9301,-5.18082 3.2632,-1.34544 7.494,-3.88896 9.4018,-5.65235 2.5643,-2.37012 5.3614,-3.20612 10.7264,-3.20612 11.8879,0 11.9364,0.17064 11.4895,40.41517 l -0.3826,34.46194 -4.6714,6.4677 c -3.0433,4.2133 -6.7527,7.2484 -10.6418,8.7072 -3.2837,1.2315 -7.2946,3.4377 -8.9132,4.9025 -3.0515,2.7616 -11.1126,7.4121 -22.6567,13.0708 -3.6836,1.8057 -8.2949,4.5268 -10.247,6.0467 -4.4542,3.4678 -15.3779,3.7164 -18.6695,0.4247 z M 586.44915,837.65056 c -2.68891,-2.28846 -7.7354,-5.40405 -11.21442,-6.92362 -3.47903,-1.51957 -6.32549,-3.28181 -6.32549,-3.91608 0,-0.63426 -3.51623,-2.9006 -7.81384,-5.03635 -15.8875,-7.89544 -23.74949,-13.1411 -26.53025,-17.70147 -2.59918,-4.26257 -2.85405,-7.81017 -2.8591,-39.79737 -0.005,-32.13535 0.22557,-35.32683 2.71623,-37.58084 3.95384,-3.57819 13.81821,-3.18591 18.81988,0.74841 4.18586,3.2926 12.46621,8.08297 21.52592,12.4532 2.81305,1.35698 7.16647,4.00273 9.67427,5.87944 2.50779,1.8767 6.18074,3.9062 8.16211,4.50993 4.53302,1.3813 15.95471,12.52897 17.79427,17.36736 1.99212,5.23972 1.87781,65.02745 -0.13172,68.84875 -2.35923,4.48637 -4.10503,5.26128 -11.91113,5.28662 -5.54546,0.0179 -8.04362,-0.85025 -11.90681,-4.13798 z m 147.47138,1.91361 c -2.15406,-1.1704 -4.19128,-2.98545 -4.52714,-4.0334 -0.33588,-1.04794 -0.24786,-17.03562 0.19559,-35.52808 l 0.8063,-33.62257 4.15952,-5.99472 c 2.50499,-3.61019 6.64917,-7.09395 10.41845,-8.75816 3.44242,-1.5199 8.87102,-4.62201 12.06355,-6.8936 3.19255,-2.27159 6.65739,-4.13017 7.69964,-4.13017 1.04226,0 3.78826,-1.58276 6.10218,-3.51722 2.31394,-1.93447 5.87276,-4.03924 7.90851,-4.67725 2.03574,-0.63802 6.05429,-2.67381 8.93011,-4.524 7.94792,-5.11337 11.03992,-5.59218 15.06767,-2.3333 3.54686,2.86978 3.55733,2.97091 3.9663,38.35948 0.53334,46.14882 1.96411,43.1272 -27.3472,57.75349 -4.1737,2.08272 -8.74386,5.06337 -10.15589,6.62356 -1.41203,1.56032 -4.29975,3.27167 -6.41714,3.80312 -2.1174,0.53145 -6.23926,2.93588 -9.15968,5.3431 -5.95997,4.91267 -13.15745,5.69037 -19.71077,2.12972 z m 132.65881,-75.14709 c -2.812,-2.812 -2.97669,-4.96117 -2.97669,-38.84426 0,-41.87468 0.55199,-44.25111 11.22554,-48.32737 3.56892,-1.36299 7.60734,-3.71399 8.97429,-5.22446 1.36695,-1.51045 4.91597,-3.53707 7.88671,-4.50358 2.97073,-0.96651 7.60136,-3.67077 10.29028,-6.00944 2.6889,-2.33868 5.7028,-4.25501 6.69757,-4.2585 0.99475,-0.004 4.82255,-2.00992 8.50622,-4.45868 7.90763,-5.25671 15.03216,-5.80475 19.34857,-1.48835 2.80172,2.80173 2.97669,4.96116 2.97669,36.73886 0,31.45561 -0.21758,34.2116 -3.1848,40.34107 -2.63987,5.45325 -4.74085,7.33405 -12.27889,10.9921 -13.16069,6.38657 -21.75654,11.19647 -24.58676,13.7578 -1.36206,1.23264 -4.79613,3.22484 -7.63124,4.42707 -2.83511,1.20225 -7.46159,3.90683 -10.28105,6.01017 -6.15613,4.59254 -10.94999,4.86402 -14.96644,0.84757 z m -407.08135,-0.0283 c -0.51554,-0.83415 -4.40618,-3.25218 -8.64586,-5.37341 -4.2397,-2.12121 -9.04803,-5.0454 -10.68521,-6.49821 -1.63718,-1.4528 -4.65109,-3.13104 -6.69758,-3.72944 -2.04648,-0.59839 -5.7727,-2.62349 -8.2805,-4.50019 -2.5078,-1.87671 -6.87168,-4.37823 -9.69755,-5.55895 -2.82583,-1.18071 -7.31576,-4.62722 -9.9776,-7.65888 l -4.83971,-5.51212 0.39791,-36.59594 0.39792,-36.59593 3.86336,-2.88335 c 3.33204,-2.48679 4.68364,-2.66247 9.82729,-1.27743 3.28014,0.88325 7.77139,3.28105 9.98054,5.32841 2.20916,2.04738 4.85665,3.72251 5.88334,3.72251 1.02667,0 4.17353,1.72092 6.99299,3.82427 2.81946,2.10333 7.44593,4.80792 10.28103,6.01017 2.83512,1.20223 6.26919,3.19443 7.63126,4.42707 1.36207,1.23267 5.40513,3.71871 8.98457,5.52455 4.39482,2.21722 7.60997,5.29796 9.90147,9.48754 3.11948,5.70344 3.40493,8.16599 3.53665,30.51119 0.24045,40.78827 0.1164,42.56257 -3.20917,45.8881 -3.20593,3.20593 -13.94665,4.20828 -15.64515,1.46004 z m 195.78576,-39.29857 c -4.47465,-2.92804 -8.89171,-5.3237 -9.81568,-5.3237 -0.92397,0 -2.83681,-1.27832 -4.25076,-2.8407 -1.41394,-1.56239 -4.6991,-3.67871 -7.30032,-4.70293 -2.60126,-1.02423 -6.73883,-3.33321 -9.1946,-5.13107 -2.45579,-1.79788 -5.97563,-3.74639 -7.82188,-4.33002 -1.84624,-0.58367 -5.19503,-2.59764 -7.44176,-4.47556 -2.2467,-1.8779 -5.74368,-3.9342 -7.77105,-4.56957 -2.02735,-0.63536 -6.95827,-3.40602 -10.95754,-6.15705 -3.9993,-2.75104 -8.07464,-5.00187 -9.0563,-5.00187 -0.98169,0 -3.18241,-1.30201 -4.89051,-2.89334 -1.70811,-1.59133 -5.67635,-3.96744 -8.81835,-5.28026 -3.142,-1.3128 -7.06138,-3.58608 -8.70972,-5.05172 -1.64836,-1.46564 -5.34118,-3.55324 -8.20625,-4.63914 -2.86507,-1.08589 -6.29913,-2.89812 -7.63125,-4.02719 -2.63574,-2.23396 -11.01906,-6.95839 -23.22356,-13.08768 -4.28195,-2.15048 -8.19466,-4.57214 -8.69486,-5.38149 -0.5002,-0.80936 -4.42824,-3.02771 -8.72893,-4.92969 -4.30069,-1.90197 -8.20357,-4.45915 -8.67306,-5.68261 -0.46948,-1.22344 -2.67363,-2.68126 -4.89811,-3.23958 -2.22447,-0.55828 -6.19289,-2.65375 -8.8187,-4.65655 -2.62582,-2.00281 -5.38075,-3.65263 -6.12207,-3.66628 -1.47655,-0.0272 -22.54789,-12.28748 -25.52212,-14.84999 -1.01692,-0.87616 -4.70059,-2.81633 -8.18592,-4.31147 -3.48531,-1.49515 -8.77208,-4.32002 -11.74837,-6.2775 -12.48646,-8.21225 -27.23855,-16.81301 -36.49763,-21.27881 -4.22234,-2.03653 -8.13505,-4.44388 -8.69485,-5.34969 -0.55982,-0.90581 -4.47251,-3.29127 -8.69486,-5.30107 -4.22234,-2.00977 -12.03042,-6.30983 -17.35128,-9.55567 -5.32085,-3.24586 -12.3533,-7.26865 -15.62769,-8.93952 -3.27436,-1.67091 -9.63707,-5.35963 -14.13932,-8.19719 -4.50227,-2.83757 -11.39386,-6.76648 -15.31466,-8.73092 -3.92078,-1.96442 -8.2742,-4.58659 -9.67427,-5.827 -2.51595,-2.22911 -7.06317,-4.74059 -22.23774,-12.28223 -4.28195,-2.12811 -8.18185,-4.51079 -8.66645,-5.29485 -0.78883,-1.27637 -6.58509,-4.60502 -24.39588,-14.00995 -3.10048,-1.63719 -6.8291,-3.98134 -8.28585,-5.20923 -1.45677,-1.22789 -5.85233,-3.90692 -9.76793,-5.9534 -26.68443,-13.94656 -25.62085,-11.92429 -26.38173,-50.16237 -0.61887,-31.10148 -1.37812,-33.93388 -8.15485,-30.42193 -4.00539,2.07573 -14.95191,8.66665 -21.97442,13.23087 -2.82915,1.83879 -6.35374,3.34574 -7.83242,3.34879 -1.47867,0.004 -4.63602,2.13781 -7.0163,4.74388 -3.71382,4.06612 -5.55617,4.82714 -12.98703,5.36465 -8.91853,0.64511 -19.72614,-2.41248 -19.72614,-5.58074 0,-0.87068 -3.51623,-3.29289 -7.81384,-5.3827 -13.09782,-6.36909 -20.034077,-10.1905 -22.920167,-12.62751 -1.51464,-1.27895 -5.55225,-3.53569 -8.97246,-5.01499 -7.157779,-3.09582 -9.849435,-7.99367 -9.138264,-16.62844 0.495152,-6.01218 2.648591,-7.74642 20.566074,-16.56253 2.86507,-1.40974 7.398207,-4.41054 10.073657,-6.66847 2.67545,-2.25792 6.69399,-4.53774 8.9301,-5.06631 2.23611,-0.52856 5.46893,-2.23196 7.18404,-3.78534 1.71509,-1.55339 5.39876,-4.03544 8.18592,-5.51569 2.78716,-1.48026 9.08611,-5.04752 13.99767,-7.92725 4.91156,-2.87973 15.2928,-8.90324 23.06942,-13.3856 7.77664,-4.48238 20.74052,-11.99116 28.80865,-16.68622 8.06815,-4.69505 19.78891,-11.40923 26.04615,-14.9204 6.25724,-3.51116 108.49168,-62.10239 227.18764,-130.20272 C 596.15298,75.28511 667.42596,35.170466 669.55996,35.557032 c 1.74005,0.315198 136.4988,77.871458 299.46385,172.347248 222.55509,129.02188 296.31669,172.45787 296.36679,174.52122 0.1318,5.42648 -4.8919,11.33679 -11.7885,13.86882 -3.712,1.36286 -8.4603,4.04221 -10.5515,5.9541 -2.0913,1.91189 -4.5514,3.47616 -5.4671,3.47616 -0.9156,0 -3.5581,1.56737 -5.8719,3.48303 -2.3139,1.91567 -6.5323,4.27672 -9.3742,5.2468 -2.8419,0.97006 -6.9531,3.47495 -9.1362,5.56642 -7.4267,7.11525 -23.4654,6.61078 -31.4168,-0.98818 -2.5197,-2.40788 -5.6766,-4.37796 -7.0154,-4.37796 -1.3386,0 -6.0751,-2.34581 -10.5252,-5.21293 -4.4501,-2.8671 -9.2834,-5.59124 -10.7404,-6.05368 -1.457,-0.46244 -2.6491,-1.38417 -2.6491,-2.04829 0,-1.98035 -8.9577,-5.11436 -10.415,-3.64392 -0.7257,0.73213 -1.5257,14.42057 -1.7776,30.41876 l -0.4584,29.08763 -4.898,6.17973 c -2.6941,3.39887 -6.3777,6.62806 -8.186,7.17595 -1.8082,0.54791 -4.6273,2.21362 -6.2645,3.70159 -1.6372,1.48797 -6.0001,3.99853 -9.6953,5.57898 -3.6953,1.58049 -7.6,3.93549 -8.6772,5.23334 -1.0771,1.29786 -4.4164,3.14626 -7.4206,4.10755 -3.0043,0.9613 -6.8018,2.89929 -8.439,4.30665 -2.8824,2.47774 -13.1645,8.5199 -22.3252,13.11914 -2.4558,1.23295 -5.8137,3.45339 -7.4621,4.93431 -1.6484,1.48093 -5.6613,3.80578 -8.9176,5.16633 -3.2561,1.36055 -7.7518,4.01482 -9.9903,5.89834 -2.2385,1.88354 -6.0258,3.85421 -8.4163,4.37924 -2.3905,0.52505 -5.5463,2.2805 -7.0129,3.90099 -1.4664,1.6205 -5.3869,4.2526 -8.7122,5.84912 -3.3253,1.59651 -9.3948,4.90797 -13.4877,7.35878 -4.093,2.45083 -10.7906,6.21733 -14.88353,8.37004 -4.09297,2.15271 -8.78128,5.09714 -10.41846,6.54321 -1.63718,1.44605 -5.43471,3.41571 -8.43896,4.377 -3.00424,0.96129 -6.32622,2.78883 -7.38219,4.06119 -1.05595,1.27235 -5.29552,3.96099 -9.42125,5.97478 -14.27003,6.96528 -19.95046,10.19915 -23.39293,13.31762 -1.90131,1.72237 -5.68377,3.87674 -8.40544,4.78749 -2.72168,0.91075 -6.95905,3.34768 -9.41637,5.41539 -2.45734,2.06772 -5.33083,3.75948 -6.38552,3.75948 -1.05469,0 -3.59796,1.32178 -5.65175,2.93726 -4.41319,3.47143 -13.73836,8.87919 -24.5454,14.23413 -4.28196,2.12171 -8.20685,4.53962 -8.72198,5.37311 -0.51513,0.83352 -3.9633,2.81285 -7.6626,4.39856 -3.69929,1.58571 -8.70007,4.54419 -11.11285,6.5744 -2.41279,2.03021 -5.10947,3.6913 -5.99263,3.6913 -0.88316,0 -3.67824,1.57803 -6.21129,3.50672 -2.53305,1.92871 -6.26429,4.03128 -8.29167,4.67242 -2.02735,0.64113 -6.95826,3.41652 -10.95755,6.16755 -3.99928,2.75103 -7.98074,5.00187 -8.84766,5.00187 -0.86693,0 -2.86822,1.17207 -4.44729,2.60462 -2.81279,2.55173 -8.60626,5.83628 -21.82906,12.37578 -3.63303,1.79676 -9.25903,5.18902 -12.50221,7.53838 -3.24317,2.34935 -6.74943,4.27153 -7.7917,4.27153 -1.04225,0 -3.78824,1.55196 -6.10217,3.4488 -2.31393,1.89685 -6.55132,4.36343 -9.41639,5.4813 -2.86507,1.11787 -7.10245,3.58445 -9.41639,5.4813 -2.31393,1.89684 -5.05991,3.44881 -6.10218,3.44881 -1.04226,0 -4.5071,1.8441 -7.69963,4.09798 -3.19255,2.25389 -8.14879,5.32238 -11.01386,6.81887 -13.69065,7.15089 -18.58755,10.08447 -21.67461,12.98461 -2.34154,2.19977 -5.96423,3.36542 -12.04598,3.87598 -8.0571,0.67639 -9.29637,0.33822 -16.83315,-4.59353 z M 1058.5766,378.33296 c 0,-27.23486 -0.1594,-28.84859 -3.1136,-31.52211 -3.6628,-3.31465 -14.2439,-9.63684 -23.6768,-14.1466 -3.6836,-1.76111 -8.037,-4.35294 -9.6742,-5.75961 -4.1515,-3.56693 -12.1569,-6.5241 -14.8568,-5.48806 -1.904,0.73065 -2.2592,5.06863 -2.2592,27.58979 0,26.26651 0.063,26.79763 3.6865,31.10402 2.0276,2.40965 6.9473,5.78391 10.9326,7.49836 3.9854,1.71445 8.0404,4.07431 9.0113,5.24416 0.9708,1.16984 5.0548,3.54212 9.0753,5.2717 4.0205,1.72959 7.7635,3.87842 8.3177,4.77515 1.2935,2.09287 9.9421,5.7537 11.4262,4.83651 0.6221,-0.38445 1.131,-13.61593 1.131,-29.40331 z m -764.009,24.78702 c 3.62923,-2.25112 9.74394,-6.12178 13.58825,-8.60147 3.84429,-2.47968 8.88088,-5.33431 11.19243,-6.34364 2.31155,-1.0093 6.84674,-3.95983 10.0782,-6.5567 l 5.87537,-4.72158 -0.4039,-27.6319 -0.40392,-27.63189 -5.05345,0.24297 c -2.77939,0.13365 -6.79794,1.65905 -8.9301,3.38981 -2.13216,1.73074 -6.17825,4.19416 -8.99132,5.47425 -2.81306,1.28011 -7.16648,3.86294 -9.67428,5.73965 -2.5078,1.8767 -6.23402,3.91279 -8.2805,4.52461 -2.04648,0.61182 -5.89045,3.20116 -8.54215,5.75406 l -4.8213,4.64166 -0.0159,27.90656 -0.0159,27.90658 h 3.89989 c 2.14492,0 6.86924,-1.84184 10.49848,-4.09297 z m 125.67795,-73.1003 c 1.95223,-1.52664 7.15795,-4.70799 11.56826,-7.06967 17.0077,-9.10737 19.15996,-10.34772 23.59207,-13.5961 2.51301,-1.84184 5.27934,-3.34879 6.14742,-3.34879 0.86807,0 2.27165,-1.29549 3.11904,-2.87886 1.80466,-3.37208 2.08991,-54.97439 0.31928,-57.7626 -0.88453,-1.39285 -3.18351,-0.77006 -9.2794,2.51377 -4.45696,2.40094 -11.11746,5.96126 -14.80112,7.91182 -3.68367,1.95056 -9.30264,5.34025 -12.4866,7.53262 -3.18396,2.19237 -6.66611,3.98613 -7.7381,3.98613 -1.07199,0 -3.65926,2.24216 -5.74946,4.98256 -3.6997,4.85056 -3.81387,5.69789 -4.3092,31.98308 -0.27985,14.85029 -0.16653,27.3428 0.25182,27.76114 1.59219,1.5922 5.95288,0.65399 9.36599,-2.0151 z m 508.17297,-0.70458 c 0.48041,-1.91419 0.66062,-14.92238 0.40043,-28.90712 -0.45517,-24.4652 -0.60798,-25.57025 -4.0407,-29.2202 -1.96221,-2.08636 -5.81332,-4.53453 -8.55802,-5.44036 -2.7447,-0.90584 -4.99037,-2.2886 -4.99037,-3.0728 0,-0.78419 -3.10048,-2.75482 -6.88996,-4.37919 -3.78947,-1.62436 -8.86403,-4.61446 -11.27681,-6.64468 -2.41279,-2.03022 -5.50756,-3.69543 -6.8773,-3.70048 -1.36973,-0.005 -4.40196,-1.00612 -6.73828,-2.22462 -2.33633,-1.21852 -4.84792,-1.84462 -5.58131,-1.39136 -2.18459,1.35017 -1.68655,56.78992 0.52698,58.66121 4.42195,3.73832 12.81781,9.16115 19.72065,12.73747 13.57681,7.03405 19.727,10.60533 23.853,13.85084 5.37133,4.22507 9.34948,4.12281 10.45169,-0.26871 z M 552.60875,254.57102 c 1.05831,-1.27517 4.32166,-3.30627 7.2519,-4.51353 2.93025,-1.20728 6.05019,-3.14899 6.93322,-4.3149 1.68104,-2.2196 13.84559,-9.31073 23.24685,-13.55138 3.65726,-1.64968 6.02916,-3.98965 7.06966,-6.97445 0.86975,-2.49494 1.56587,-16.32374 1.56587,-31.10675 0,-22.6728 -0.34189,-26.74612 -2.30825,-27.50068 -1.28183,-0.49188 -3.76372,0.44423 -5.58131,2.10514 -1.80019,1.645 -5.61722,4.15465 -8.4823,5.57701 -2.86507,1.42236 -6.2651,3.5086 -7.55558,4.63609 -2.13533,1.86562 -5.4401,3.73997 -22.5957,12.8154 -6.84955,3.62344 -7.39571,5.58537 -7.48594,26.89156 -0.14749,34.82914 0.1411,38.25502 3.22292,38.25502 1.53695,0 3.66035,-1.04333 4.71866,-2.31853 z M 797.7862,229.35506 c 0.45604,-29.42671 -0.13424,-32.15114 -7.80428,-36.02149 -2.48472,-1.2538 -5.8572,-3.43242 -7.49438,-4.84137 -1.63719,-1.40896 -5.32086,-3.46232 -8.18592,-4.56302 -2.86509,-1.10073 -7.10246,-3.55326 -9.4164,-5.4501 -2.31392,-1.89685 -5.05962,-3.44881 -6.10151,-3.44881 -1.0419,0 -4.8152,-1.96165 -8.3851,-4.35922 -3.5699,-2.39759 -7.01948,-4.03244 -7.66572,-3.63304 -1.69121,1.04522 -1.45286,56.78432 0.25648,59.97824 0.7873,1.47111 3.63377,3.54473 6.32548,4.60809 2.69171,1.06334 6.23355,3.08749 7.87073,4.49809 1.63719,1.41064 4.6511,3.06606 6.69758,3.67874 2.04649,0.61267 6.06503,2.91429 8.9301,5.11468 2.86507,2.20042 7.36374,4.86207 9.99701,5.91481 2.6333,1.05276 5.58859,2.87899 6.56735,4.0583 0.97876,1.17933 3.17768,1.94447 4.88648,1.70033 3.00094,-0.42877 3.12112,-1.35796 3.5221,-27.23423 z M 325.44838,686.45765 c -4.9751,-2.59031 -11.00292,-6.03441 -13.39516,-7.65354 -4.2819,-2.89813 -10.88298,-6.51676 -24.81432,-13.60293 -3.88832,-1.9778 -7.06967,-4.12653 -7.06967,-4.77499 0,-0.64844 -1.64235,-2.05795 -3.64967,-3.13223 -2.00731,-1.0743 -4.35146,-3.96644 -5.20923,-6.42701 -1.98592,-5.69683 -2.07166,-66.48789 -0.10102,-71.67091 2.32606,-6.11801 7.33377,-7.55555 16.13577,-4.63199 4.11325,1.3662 8.31518,3.49198 9.33763,4.72395 1.02245,1.23199 4.25534,3.47108 7.1842,4.97577 14.14281,7.26578 20.1776,10.66126 22.32743,12.56249 1.29049,1.14129 5.01698,3.31794 8.2811,4.83703 9.07459,4.22322 10.1743,7.93323 10.74339,36.24399 0.689,34.27605 -0.41137,45.63508 -4.8508,50.07452 -1.92836,1.92834 -4.03887,3.43398 -4.69004,3.34581 -0.65114,-0.088 -5.25444,-2.27964 -10.22954,-4.86996 z m 672.22822,2.17593 c -4.0459,-4.04592 -5.0457,-15.03329 -4.3158,-47.4294 0.729,-32.35666 1.6178,-35.47394 11.1143,-38.98177 3.3972,-1.25486 7.5369,-3.51254 9.1994,-5.01709 3.2475,-2.93901 9.0622,-6.37546 19.3765,-11.45155 3.5607,-1.75235 9.3284,-5.19814 12.8173,-7.65731 8.5617,-6.03485 16.2505,-6.30492 21.0382,-0.73897 3.4247,3.98149 3.4841,4.60993 3.5114,37.13705 0.025,29.10468 -0.2874,33.5665 -2.5905,37.07077 -3.1386,4.7755 -9.271,9.82594 -16.8492,13.87646 -18.1313,9.69108 -21.6589,11.70797 -23.8589,13.64143 -2.7161,2.38715 -23.0839,12.40471 -25.2213,12.40471 -0.7519,0 -2.6516,-1.28446 -4.2214,-2.85433 z M 197.56577,611.52627 c -4.09295,-1.2416 -9.41574,-3.68347 -11.82838,-5.42634 -4.61811,-3.33611 -11.34611,-7.10796 -24.23566,-13.58699 -4.28195,-2.15235 -8.18936,-4.56705 -8.68312,-5.36595 -0.49377,-0.79892 -3.39284,-3.02766 -6.4424,-4.95277 -8.11729,-5.12421 -9.11466,-10.13589 -8.94028,-44.92328 0.0815,-16.27688 0.61175,-31.25866 1.1781,-33.29284 0.56634,-2.03416 2.80181,-4.69315 4.96769,-5.90883 3.54279,-1.98851 4.73145,-1.93262 11.84498,0.55693 4.34886,1.52199 9.58141,4.22597 11.62789,6.00884 2.04648,1.78288 6.56734,4.47039 10.04637,5.97223 3.47902,1.50185 6.32549,3.22493 6.32549,3.82905 0,0.60413 3.10531,2.55806 6.90069,4.34211 3.79536,1.78403 10.43752,5.85652 14.76031,9.04996 7.71748,5.70123 7.87743,5.97531 8.84272,15.1525 0.54069,5.14044 0.76357,21.51716 0.49527,36.39274 -0.47353,26.2549 -0.59342,27.1588 -4.09602,30.88328 -1.98454,2.11022 -3.99382,3.76704 -4.46506,3.68179 -0.47127,-0.0852 -4.20562,-1.17082 -8.29859,-2.41243 z m 930.96333,-1.89765 c -2.8085,-2.80852 -2.9767,-4.96116 -2.9767,-38.10177 v -35.12507 l 5.0497,-4.6883 c 7.3168,-6.79303 13.0344,-10.80585 17.2756,-12.12458 2.0464,-0.63633 5.6435,-2.76451 7.9935,-4.72929 2.35,-1.96478 6.6942,-4.58413 9.6539,-5.82078 2.9597,-1.23666 6.73,-3.49631 8.3783,-5.02144 3.6976,-3.42114 20.8838,-9.17369 23.9231,-8.00746 5.0354,1.93232 5.8569,6.91562 6.3391,38.457 0.5661,37.02085 -0.1717,40.5033 -10.1492,47.90961 -3.6836,2.7344 -9.7114,6.49959 -13.3951,8.36709 -11.8445,6.00479 -23.522,13.01942 -25.3592,15.23321 -1.9895,2.39721 -14.9515,6.62849 -20.3056,6.62849 -1.898,0 -4.7903,-1.33951 -6.4274,-2.97671 z"
     id="path74"
     inkscape:connector-curvature="0" />
</svg>
